<svg width="28" height="21" viewBox="0 0 28 21" fill="none" xmlns="http://www.w3.org/2000/svg">
<path d="M11 20.3203C5.43619 20.3203 0.910049 15.915 0.910049 10.4999C0.910049 5.08468 5.43619 0.679443 11 0.679443C16.5638 0.679443 21.09 5.08468 21.09 10.4999C21.0878 15.915 16.5616 20.3203 11 20.3203ZM11 2.05701C6.21769 2.05701 2.32541 5.8453 2.32541 10.4999C2.32541 15.1544 6.21769 18.9427 11 18.9427C15.7823 18.9427 19.6746 15.1544 19.6746 10.4999C19.6724 5.8453 15.7823 2.05701 11 2.05701Z" fill="#1C2500"/>
<path d="M17 20.3205C11.4362 20.3205 6.91005 15.9153 6.91005 10.5001C6.91005 5.08493 11.4362 0.679688 17 0.679688C22.5638 0.679688 27.09 5.08493 27.09 10.5001C27.0878 15.9153 22.5616 20.3205 17 20.3205ZM17 2.05725C12.2177 2.05725 8.32541 5.84554 8.32541 10.5001C8.32541 15.1546 12.2177 18.9429 17 18.9429C21.7823 18.9429 25.6746 15.1546 25.6746 10.5001C25.6724 5.84554 21.7823 2.05725 17 2.05725Z" fill="#1C2500"/>
</svg>
